# xmcd
#
# Track frame offsets:
#	150
#	13132
#	25857
#	37870
#	55042
#	70925
#	84752
#	102905
#	112630
#	138587
#	149230
#	166202
#	176965
#	192787
#	207720
#	220397
#	233762
#	245705
#	260395
#	277877
#
# Disc length: 3859 seconds
#
# Revision: 1
# Processed by: cddbd v1.5.1PL0 Copyright (c) Steve Scherf et al.
# Submitted via: CDex 1.50Beta5
#
DISCID=200f1114
DTITLE=Various Artist - 空に星があるように [フォーク&ポップス大全集6]
DYEAR=1900
DGENRE=Pop
TTITLE0=荒木一郎/空に星があるように
TTITLE1=荒木一郎/今夜は踊ろう
TTITLE2=荒木一郎/いとしのマックス
TTITLE3=佐良直美/世界は二人のために
TTITLE4=佐良直美/いいじゃないの幸せならば
TTITLE5=五つの赤い風船/あなたの心に
TTITLE6=五つの赤い風船/遠い世界に
TTITLE7=五つの赤い風船/もしもボクの背中に羽根が生えていたら
TTITLE8=五つの赤い風船/遠い空の彼方から
TTITLE9=五つの赤い風船/恋は風に乗って
TTITLE10=高石友也/受験生ブルース
TTITLE11=高石友也/想い出の赤いヤッケ
TTITLE12=岡林信康、高石友也、フォーク・キャンバース/友よ
TTITLE13=チェリッシュ/なのにあなたは京都へゆくの
TTITLE14=チェリッシュ/若草の髪かざり
TTITLE15=チェリッシュ/白いギター
TTITLE16=チェリッシュ/てんとう虫のサンバ
TTITLE17=アン真理子/悲しみは駆け足でやってくる
TTITLE18=マイ・ペース/東京
TTITLE19=ソルティー・シュガー/走れコウタロー
EXTD=
EXTT0=
EXTT1=
EXTT2=
EXTT3=
EXTT4=
EXTT5=
EXTT6=
EXTT7=
EXTT8=
EXTT9=
EXTT10=
EXTT11=
EXTT12=
EXTT13=
EXTT14=
EXTT15=
EXTT16=
EXTT17=
EXTT18=
EXTT19=
PLAYORDER=
